<svg width="50" height="48" viewBox="0 0 50 48" fill="none" xmlns="http://www.w3.org/2000/svg">
<path d="M47.3609 25.9349H48.673L48.6605 26.067C48.145 32.0337 45.3884 37.5649 40.9026 41.6412C36.3896 45.742 30.5204 48 24.3744 48C10.9338 48 0 37.2347 0 23.9989C0 10.7654 10.9336 0 24.3744 0C30.2961 0 36.0038 2.11351 40.4477 5.95423C44.8246 9.73734 47.6815 14.9239 48.5033 20.5666H50L47.8493 24.6097L45.6987 20.5666H47.1807C45.4848 9.56613 35.7063 1.28775 24.3745 1.28775C11.6548 1.28775 1.30825 11.4772 1.30825 23.9988C1.30825 36.5227 11.6548 46.712 24.3745 46.712C36.4042 46.712 46.2814 37.827 47.3505 26.0463L47.3609 25.9349Z" fill="white"/>
<path d="M20.5738 19.7467L20.5314 19.8225L20.3122 20.217L15.4046 29.0543H11.4387L11.2974 25.708L9.52684 29.0543H5.56182L4.07492 19.7815L8.71224 19.7467L9.03117 23.8255L11.0137 19.7467H14.1297L14.2004 23.8952L16.3251 19.7467H20.5738Z" fill="white"/>
<path d="M45.0026 19.7474L37.0017 32.1576H31.9751L34.5239 28.4611L33.1741 20.1581L33.1173 19.8176L33.1068 19.7474H37.3559L37.7815 23.8607L40.1878 19.7474H45.0026Z" fill="white"/>
<path d="M33.107 19.7474L33.1174 19.8176L33.1739 20.1581L29.8915 35.9758H30.9689L30.2896 38.6485L29.7762 38.5205L30.2896 36.4958H29.2416L35.2619 7.49192H23.1419V6.97197H35.9095L33.2578 19.7474H33.107Z" fill="white"/>
<path d="M33.1318 19.7474L33.1173 19.8176L33.107 19.7474H33.1318Z" fill="white"/>
<path d="M33.107 19.7474L33.1175 19.8176L33.1743 20.1581L33.2586 19.7474H33.107Z" fill="white"/>
<path d="M25.8207 29.004L25.8354 28.9318L26.0094 28.1041L26.0052 28.1063L25.7641 28.2568C24.4415 29.0825 23.0497 29.1959 21.8486 28.5726C20.8151 28.0381 20.0564 27.004 19.7859 25.8214C19.7273 25.5717 19.6916 25.3138 19.6811 25.0537C19.679 25.0455 19.679 25.0351 19.679 25.0269L19.6537 24.3499L19.6432 24.0879L19.6411 24.0405L19.6223 24.1312L19.593 24.2612C19.593 24.2633 19.593 24.2674 19.5908 24.2715L19.5154 24.6347L19.4147 25.0992L19.3309 25.4975L19.2617 25.8215C19.2681 25.863 19.2764 25.9022 19.2848 25.9413C19.2994 25.9971 19.312 26.0508 19.3267 26.1045C19.3392 26.1561 19.354 26.2055 19.3687 26.2551L19.4001 26.3542L19.4547 26.1045L19.5133 25.8258L19.5238 25.7762C19.7398 26.8267 20.3204 27.7721 21.1337 28.4036C21.1819 28.4407 21.23 28.4759 21.2803 28.5089C21.425 28.614 21.5759 28.707 21.7332 28.7875C22.9323 29.4087 24.3031 29.3468 25.6216 28.6224C25.6321 28.6182 25.6426 28.612 25.6531 28.6058L25.5293 29.1961L25.5189 29.2456H29.5854L29.5708 29.3179L29.5456 29.4395H29.7992L29.8222 29.3179L29.8873 29.0041H25.8207V29.004Z" fill="white"/>
<path d="M30.1263 28.8099H26.0617L26.2944 27.6975L26.2042 27.7533L25.6592 28.0938C24.999 28.5045 24.326 28.7295 23.67 28.7687C23.647 28.7708 23.6239 28.7728 23.6029 28.7728C23.0264 28.7954 22.4626 28.6718 21.9407 28.4013C20.7396 27.78 19.9303 26.453 19.876 25.0185L19.8466 24.255L19.8361 23.9722L19.8256 23.7369V23.7121L19.8193 23.5574L19.8129 23.3675L19.8088 23.2581L19.7983 23.0042L19.7961 22.9609L19.7878 22.7359L19.7795 22.4903L19.7773 22.4635L19.7668 22.5109V22.5129L19.66 23.0124V23.0145L19.2869 24.7606V24.7627L19.18 25.2623L19.157 25.3695L16.6688 37.0284H15.6124L14.8116 40.1842H28.8623L29.665 37.0284H28.4494L29.9984 29.4394L30.1263 28.8099ZM27.6696 37.6578H28.8455L28.3633 39.5546H15.6291L16.1112 37.6578H17.1886L19.5279 26.6925L19.553 26.5727C19.9535 27.6149 20.6976 28.4693 21.643 28.9585C22.2026 29.2475 22.8064 29.3961 23.4227 29.4022C24.039 29.4126 24.6699 29.2784 25.2904 29.0018C25.3197 28.9915 25.347 28.9771 25.3764 28.9648L25.2779 29.4394H29.3466L27.6696 37.6578Z" fill="white"/>
<path d="M19.6853 23.8343L20.9393 17.9601L16.4818 17.8208L21.7828 8.07807H34.1583L31.7476 19.8882H27.7341L27.4116 21.4233L27.2484 21.2426C26.9548 20.9171 25.8806 19.8555 24.3851 19.8555H24.3837C23.22 19.8561 22.0585 20.4908 20.9314 21.7421C20.6008 22.1097 20.3303 22.5072 20.1281 22.9235L19.6853 23.8343ZM16.8865 17.5908L21.2402 17.7267L21.1783 18.0204L20.2966 22.1505C20.4319 21.9543 20.5822 21.7641 20.747 21.581C21.9227 20.2754 23.1461 19.6131 24.3834 19.6128H24.385C25.773 19.6128 26.8142 20.4605 27.2677 20.9092L27.5334 19.6454H31.5457L33.8573 8.32062H21.9302L16.8865 17.5908Z" fill="white"/>
<path d="M21.6661 7.8841L16.1595 18.0034L20.6999 18.1457L20.3581 19.7473L20.224 20.3788L19.7776 22.4635L19.7671 22.5109V22.513L19.6603 23.0124V23.0145L19.2871 24.7606V24.7626L19.1802 25.2623L19.1572 25.3695L19.1845 25.3138L19.2914 25.0951L19.3815 24.9092L19.4088 24.8516L19.5157 24.6347L19.566 24.5296L19.6037 24.4491L19.6058 24.447L19.654 24.3499L19.7211 24.2096L19.7316 24.1889L19.8363 23.9722L19.958 23.7225L20.306 23.0062C20.501 22.6058 20.7608 22.2241 21.0795 21.8711C22.159 20.672 23.2594 20.0589 24.3578 20.0487H24.3851C25.8 20.0487 26.8229 21.06 27.1016 21.3716L27.4602 21.7679L27.5252 21.8401L27.8941 20.0817H31.9083L34.3987 7.8841H21.6661ZM20.6831 21.2789L21.3707 18.0593L21.4796 17.5411L17.2098 17.4069L22.0477 8.51355H33.6186L31.384 19.4523H27.374L27.1456 20.5316C27.1246 20.5131 27.1036 20.4965 27.0806 20.4759C26.5251 20.0136 25.5776 19.4192 24.3828 19.4192C24.3702 19.4192 24.3555 19.4192 24.3429 19.4213C23.0832 19.4336 21.8443 20.0961 20.66 21.386L20.6831 21.2789Z" fill="white"/>
<path d="M24.3847 19.6133H24.3827C23.5148 19.6133 22.6533 19.9393 21.8107 20.5874C22.6303 19.9723 23.4667 19.6628 24.3071 19.6628H24.3596C25.6213 19.6834 26.5897 20.414 27.0594 20.8536L27.2207 21.0042L27.2333 20.9423L27.2458 20.8887C26.7828 20.4368 25.7515 19.6133 24.3847 19.6133ZM23.3892 29.1587C23.3411 29.1587 23.2926 29.1587 23.2467 29.1546C22.5424 29.132 21.8716 28.9131 21.2804 28.5086C21.4251 28.6138 21.576 28.7067 21.7332 28.7872C22.9324 29.4085 24.3031 29.3466 25.6216 28.6221L25.6342 28.5623L25.6447 28.5169L25.4141 28.6366C24.7391 28.9853 24.0515 29.1566 23.3892 29.1587Z" fill="white"/>
<path d="M24.3848 19.6133H24.3826C23.5148 19.6133 22.6533 19.9393 21.8107 20.5874C22.6303 19.9723 23.4667 19.6628 24.3071 19.6628H24.3596C25.6215 19.6834 26.5898 20.4139 27.0594 20.8536L27.2207 21.0043L27.2333 20.9423L27.2458 20.8887C26.7828 20.4368 25.7515 19.6133 24.3848 19.6133ZM23.3892 29.1587C23.3411 29.1587 23.2927 29.1587 23.2467 29.1546C22.5424 29.132 21.8716 28.9131 21.2804 28.5086C21.4251 28.6138 21.576 28.7067 21.7333 28.7872C22.9324 29.4085 24.3031 29.3466 25.6217 28.6221L25.6341 28.5623L25.6447 28.5169L25.4141 28.6367C24.7391 28.9853 24.0515 29.1566 23.3892 29.1587ZM25.4141 28.6367C24.7391 28.9854 24.0515 29.1568 23.3892 29.1587C23.3411 29.1587 23.2927 29.1587 23.2467 29.1546C22.5424 29.132 21.8716 28.9131 21.2804 28.5086C21.4251 28.6138 21.576 28.7067 21.7333 28.7872C22.9324 29.4085 24.3031 29.3466 25.6217 28.6221L25.6341 28.5623L25.6447 28.5169L25.4141 28.6367ZM24.3848 19.6133H24.3826C23.5148 19.6133 22.6533 19.9393 21.8107 20.5874C22.6303 19.9723 23.4667 19.6628 24.3071 19.6628H24.3596C25.6215 19.6834 26.5898 20.4139 27.0594 20.8536L27.2207 21.0043L27.2333 20.9423L27.2458 20.8887C26.7828 20.4368 25.7515 19.6133 24.3848 19.6133Z" fill="white"/>
<path fill-rule="evenodd" clip-rule="evenodd" d="M27.1257 20.2595L27.2943 19.4523V19.4526H32.0299L31.902 20.0821L31.7384 20.8947H32.7127V21.182H31.6805L31.6011 21.5765H32.7127V21.8639H31.5432L31.4638 22.2582H32.7127V22.5456H31.4059L31.3265 22.94H32.7125V23.2277H31.2686L31.1891 23.6221H32.7125V23.9089H31.1314L31.0519 24.3035H32.7125V24.5912H30.994L30.9146 24.9856H32.7125V25.2724H30.8568L30.7773 25.6669H32.7125V25.9546H30.7194L30.64 26.3489H32.7127V26.6363H30.5821L30.5027 27.0306H32.7127V27.3179H30.4448L30.3654 27.7123H32.7127V27.9998H30.3075L30.2281 28.3941H32.7127V28.6815H30.1702L30.0176 29.4397H25.1985L25.2906 29.0021L25.299 28.9629C24.6722 29.2518 24.0371 29.3984 23.4229 29.4025C22.5888 29.4127 21.7902 29.1683 21.0976 28.6815H18.2598V28.3941H20.7331C20.5959 28.2733 20.4638 28.1418 20.3378 27.9998H18.2598V27.7123H20.1037C20.0098 27.5865 19.9217 27.4548 19.8401 27.3179H18.2598V27.0306H19.6823C19.6268 26.9205 19.5753 26.8078 19.5282 26.6926C19.5202 26.674 19.5123 26.6552 19.5046 26.6363H18.2598V26.3489H19.3986L19.3688 26.2551L19.3665 26.2476C19.3526 26.2005 19.3387 26.1534 19.3268 26.1045C19.3184 26.0737 19.3107 26.0429 19.3028 26.0116C19.2981 25.9928 19.2933 25.9738 19.2883 25.9546H18.2599V25.6669H19.2308C19.2291 25.6559 19.2276 25.6448 19.2261 25.6337C19.2072 25.5285 19.1946 25.421 19.1842 25.3138C19.1825 25.3006 19.1808 25.2861 19.1802 25.2724H18.2598V24.9856H19.164C19.1602 24.855 19.1617 24.7234 19.1687 24.5912H18.2599V24.3035H19.1928C19.2078 24.1723 19.2284 24.0407 19.2548 23.9089H18.2599V23.6221H19.3215C19.3564 23.4905 19.3973 23.359 19.4444 23.2277H18.2598V22.94H19.5581C19.6152 22.8079 19.6788 22.6763 19.7493 22.5456H18.2598V22.2582H19.9153C19.9311 22.233 19.9473 22.2078 19.964 22.1828C19.9952 22.1307 20.0302 22.0789 20.0655 22.0267C20.068 22.023 20.0705 22.0193 20.073 22.0156L20.0743 22.0137C20.0969 21.9814 20.1195 21.9489 20.1463 21.9165C20.1583 21.8993 20.1709 21.8817 20.1839 21.8639H18.2598V21.5765H20.4135C20.4159 21.5736 20.4184 21.5707 20.4209 21.5678L20.4229 21.5654C20.4537 21.5291 20.4846 21.4927 20.5195 21.4564V21.4564C20.5195 21.4544 20.5195 21.4544 20.5216 21.4523C20.574 21.3923 20.6285 21.3346 20.683 21.2789C20.7138 21.2462 20.7448 21.2139 20.7757 21.182H18.2598V20.8947H21.0685C21.2007 20.771 21.3336 20.6551 21.4671 20.5469H20.6815V20.2595H21.8489C22.6516 19.7016 23.4742 19.4193 24.3052 19.4193C24.3177 19.4193 24.3304 19.4193 24.3429 19.4214C25.3396 19.4298 26.1612 19.8514 26.7241 20.2595H27.1257ZM26.4558 20.2595C25.9249 19.9186 25.217 19.6133 24.3848 19.6133H24.3829C23.6764 19.6133 22.974 19.8294 22.2826 20.2595H22.2972C22.9603 19.8624 23.6325 19.6628 24.3075 19.6628H24.3599C25.1245 19.6752 25.7813 19.9484 26.2847 20.2595H26.4558ZM26.6991 20.5469H26.8574C27.0131 20.6704 27.1435 20.7886 27.2461 20.8887L27.2447 20.8947H27.1038L27.0597 20.8536C26.961 20.7611 26.8401 20.6558 26.6991 20.5469ZM25.4224 20.2595C25.1025 20.1379 24.745 20.0556 24.3576 20.0487H24.3073C23.932 20.0487 23.556 20.1192 23.1805 20.2595H25.4224ZM22.5744 20.5469H26.0139C26.2031 20.6594 26.3709 20.7796 26.5146 20.8947H22.0495C22.2241 20.7636 22.3991 20.6476 22.5744 20.5469ZM21.8656 20.5469H21.8642C21.8465 20.5602 21.8287 20.5737 21.811 20.5873C21.8292 20.5737 21.8474 20.5602 21.8656 20.5469ZM21.695 21.182C21.5552 21.3038 21.4158 21.4353 21.2766 21.5765H27.2082L27.024 21.3716C26.9804 21.3232 26.9189 21.2579 26.8407 21.182H21.695ZM27.5837 21.182L27.5004 21.5765H30.9486L31.0281 21.182H27.5837ZM31.086 20.8947L31.156 20.5469H27.7179L27.6444 20.8947H31.086ZM31.214 20.2595H27.7786L27.8162 20.0817H31.2498L31.214 20.2595ZM30.8907 21.8639H21.006C21.0038 21.8663 21.0017 21.8687 20.9995 21.8711C20.885 21.9982 20.7796 22.1273 20.6829 22.2582H30.8112L30.8907 21.8639ZM30.7533 22.5456H20.4859C20.4034 22.6759 20.3289 22.8075 20.2622 22.94H30.6739L30.7533 22.5456ZM30.6159 23.2277H26.1962C26.1506 23.1844 26.0989 23.1496 26.0415 23.1248C25.8421 23.0391 25.6055 23.0838 25.3762 23.2277H20.1299C20.0753 23.3588 20.0278 23.4904 19.9873 23.6221H24.9521C24.8837 23.7094 24.8202 23.8056 24.7628 23.9089H19.911C19.8846 24.0242 19.863 24.1395 19.8466 24.2549C19.8442 24.2711 19.8419 24.2873 19.8397 24.3035H24.586C24.5531 24.4001 24.5263 24.4967 24.5084 24.5912H19.8112C19.8026 24.7236 19.8004 24.8552 19.8043 24.9856H24.4698C24.4705 25.0877 24.4816 25.1842 24.5027 25.2724H19.8226C19.8358 25.4057 19.8551 25.5373 19.8805 25.6669H24.7102C24.7566 25.7118 24.8091 25.7475 24.868 25.7729C25.0683 25.8586 25.3072 25.8131 25.5372 25.6669H30.1244L30.2039 25.2724H25.9598C26.0274 25.1851 26.091 25.0891 26.1484 24.9856H30.2617L30.3412 24.5912H26.3242C26.3572 24.4937 26.3833 24.3979 26.402 24.3035H30.3991L30.4786 23.9089H26.4398C26.4389 23.807 26.4272 23.7103 26.4059 23.6221H30.5364L30.6159 23.2277ZM30.0664 25.9546H19.9473C19.9835 26.089 20.0262 26.2206 20.0748 26.3489H29.987L30.0664 25.9546ZM29.9291 26.6363H20.1964C20.2602 26.7725 20.331 26.9042 20.4082 27.0306H29.8497L29.9291 26.6363ZM29.7918 27.3179H20.6017C20.6591 27.3955 20.7191 27.4706 20.7815 27.5428C20.8314 27.6004 20.8834 27.657 20.9375 27.7123H26.1929L26.2169 27.6974L26.2135 27.7123H29.7123L29.7918 27.3179ZM29.6544 27.9998H26.153L26.0708 28.3941H29.5749L29.6544 27.9998ZM29.517 28.6815H26.0109L25.9841 28.8099H29.4911L29.517 28.6815ZM25.3249 28.6815H25.5105C24.2262 29.3494 22.8986 29.391 21.7332 28.7872C21.6685 28.7541 21.6048 28.7188 21.5422 28.6815H21.5575C22.0778 28.9756 22.6502 29.1356 23.2466 29.1546C23.2927 29.1587 23.3409 29.1587 23.3891 29.1587C24.0224 29.1567 24.6786 29 25.3249 28.6815ZM25.0294 28.3941C25.21 28.3095 25.3935 28.2098 25.5795 28.0937L25.7305 27.9998H21.252C21.4337 28.1479 21.6326 28.2813 21.8468 28.3941H25.0294ZM22.5961 28.6815H24.2166C24.0303 28.7258 23.848 28.7544 23.67 28.7686C23.647 28.7707 23.6239 28.7727 23.6029 28.7727C23.2476 28.7947 22.9108 28.7602 22.5961 28.6815Z" fill="white"/>
</svg>
